<?xml version="1.0" encoding="utf-8"?>
<!-- Generator: Adobe Illustrator 16.0.3, SVG Export Plug-In . SVG Version: 6.00 Build 0)  -->
<!DOCTYPE svg PUBLIC "-//W3C//DTD SVG 1.1//EN" "http://www.w3.org/Graphics/SVG/1.1/DTD/svg11.dtd">
<svg version="1.1" id="レイヤー_1" xmlns="http://www.w3.org/2000/svg" xmlns:xlink="http://www.w3.org/1999/xlink" x="0px"
	 y="0px" width="1247.24px" height="731.34px" viewBox="0 0 1247.24 731.34" enable-background="new 0 0 1247.24 731.34"
	 xml:space="preserve">
<path fill="#DCDDDD" d="M695.321,295.513c0,11.942-9.682,21.624-21.624,21.624H93.661c-11.942,0-21.625-9.682-21.625-21.624V121.925
	c0-11.942,9.682-21.624,21.625-21.624h580.036c11.942,0,21.624,9.682,21.624,21.624V295.513z"/>
<path fill="#B28247" d="M649.094,268.033c0,8.161-6.616,14.777-14.777,14.777H133.042c-8.161,0-14.778-6.616-14.778-14.777V149.405
	c0-8.161,6.617-14.777,14.778-14.777h501.275c8.161,0,14.777,6.616,14.777,14.777V268.033z"/>
<path fill="#F8B62D" d="M649.094,256.59c0,8.161-6.616,14.777-14.777,14.777H133.042c-8.161,0-14.778-6.617-14.778-14.777V149.405
	c0-8.161,6.617-14.777,14.778-14.777h501.275c8.161,0,14.777,6.616,14.777,14.777V256.59z"/>
<path fill="#DCDDDD" d="M695.321,623.53c0,11.941-9.682,21.623-21.624,21.623H93.661c-11.942,0-21.625-9.682-21.625-21.623V449.941
	c0-11.941,9.682-21.623,21.625-21.623h580.036c11.942,0,21.624,9.682,21.624,21.623V623.53z"/>
<text transform="matrix(1 0 0 1 287.4971 184.5625)" fill="#3E3A39" font-family="'IBMPlexSansJP-90ms-RKSJ-H'" font-size="29.2418">管理者以外</text>
<text transform="matrix(1 0 0 1 217.4438 237.959)" fill="#FFFFFF" stroke="#FFFFFF" stroke-miterlimit="10" font-family="'IBMPlexSansJP-90ms-RKSJ-H'" font-size="44.4983" letter-spacing="4">絶対に押すな</text>
<text transform="matrix(1 0 0 1 846.9971 264.7793)" fill="#D06BA6" font-family="'IBMPlexSansJP-90ms-RKSJ-H'" font-size="48" letter-spacing="4">絶対に押す</text>
<text transform="matrix(1 0 0 1 794.1973 207.1392)" fill="#D06BA6" font-family="'IBMPlexSansJP-90ms-RKSJ-H'" font-size="48" letter-spacing="4">読まないやつが</text>
<text transform="matrix(1 0 0 1 846.9971 584.2471)" fill="#79C8CB" font-family="'IBMPlexSansJP-90ms-RKSJ-H'" font-size="48" letter-spacing="4">絶対に押す</text>
<text transform="matrix(1 0 0 1 794.1973 526.6074)" fill="#79C8CB" font-family="'IBMPlexSansJP-90ms-RKSJ-H'" font-size="48" letter-spacing="4">読まないやつが</text>
<text transform="matrix(1 0 0 1 211.8037 557.4277)" fill="#3E3A39" font-family="'IBMPlexSansJP-90ms-RKSJ-H'" font-size="55" letter-spacing="2">絶対に押すな</text>
<polyline fill="none" stroke="#FFFFFF" stroke-width="5" stroke-miterlimit="10" points="590.733,182.477 611.811,203.554 
	590.733,224.632 "/>
<ellipse fill="none" stroke="#E371A8" stroke-width="7" stroke-miterlimit="10" cx="72.036" cy="100.301" rx="40.599" ry="40.39"/>
<line fill="none" stroke="#79C8CB" stroke-width="7" stroke-miterlimit="10" x1="109.364" y1="390.99" x2="34.707" y2="465.646"/>
<line fill="none" stroke="#79C8CB" stroke-width="7" stroke-miterlimit="10" x1="109.365" y1="465.646" x2="34.707" y2="390.99"/>
</svg>
