<?xml version="1.0" encoding="utf-8"?>
<!-- Generator: Adobe Illustrator 16.0.3, SVG Export Plug-In . SVG Version: 6.00 Build 0)  -->
<!DOCTYPE svg PUBLIC "-//W3C//DTD SVG 1.1//EN" "http://www.w3.org/Graphics/SVG/1.1/DTD/svg11.dtd">
<svg version="1.1" id="レイヤー_1" xmlns="http://www.w3.org/2000/svg" xmlns:xlink="http://www.w3.org/1999/xlink" x="0px"
	 y="0px" width="141.73px" height="141.73px" viewBox="0 0 141.73 141.73" enable-background="new 0 0 141.73 141.73"
	 xml:space="preserve">
<g>
	<path fill-rule="evenodd" clip-rule="evenodd" fill="#FFFFFF" d="M2.443,97.582c-0.041,0.521-0.072,0.933-0.104,1.345
		c-0.026,0.517-0.103,1.032-0.115,1.548c-0.018,0.719,0.022,1.438,0.02,2.158c-0.001,0.639-0.103,1.286-0.024,1.913
		c0.133,1.061,0.533,2.108,0.522,3.159c-0.01,1.029-0.536,2.049-0.582,3.084c-0.102,2.313-0.101,4.634-0.022,6.947
		c0.027,0.807,0.407,1.601,0.566,2.184c-0.147,0.393-0.383,0.702-0.347,0.976c0.184,1.354,0.348,2.68-0.204,4.007
		c-0.135,0.325-0.113,1.017,0.073,1.122c1.053,0.599,0.886,1.614,0.688,2.391c-0.334,1.314-0.337,2.448,0.455,3.597
		c0.892,1.293,1.734,2.552,3.485,2.807c0.791,0.115,1.533,0.538,2.32,0.726c0.554,0.131,1.152,0.173,1.719,0.119
		c0.557-0.053,1.096-0.284,1.647-0.419c0.408-0.101,0.931-0.041,1.215-0.277c1.138-0.946,2.361-1.857,3.257-3.012
		c1.365-1.759,1.397-4.278,0.361-5.769c1.005-0.922,1.045-1.237,0.43-2.534c-0.111-0.233-0.11-0.543-0.089-0.812
		c0.146-1.898,0.413-3.793,0.449-5.691c0.065-3.438,0.023-6.879-0.035-10.317c-0.013-0.771-0.42-1.545-0.392-2.309
		c0.074-1.987,0.378-3.968,0.428-5.954c0.078-3.063,0.05-6.13,0.012-9.195c-0.033-2.663-0.293-5.331-0.176-7.985
		c0.112-2.557,0.592-5.097-0.63-7.528c-0.06-0.118,0.02-0.322,0.067-0.476c0.244-0.794,0.69-1.58,0.707-2.376
		c0.033-1.541-0.356-3.101-0.233-4.625c0.139-1.723,0.605-3.411-0.151-5.103c-0.093-0.208-0.041-0.506,0.01-0.748
		c0.117-0.556,0.387-1.102,0.396-1.654c0.042-2.719,0.024-5.439,0.011-8.16c-0.001-0.246-0.077-0.679-0.194-0.707
		c-0.761-0.181-0.521-0.58-0.32-1.04c0.659-1.506,0.604-3.056,0.314-4.642c-0.164-0.893-0.233-1.819-0.203-2.726
		c0.024-0.717,0.356-1.423,0.391-2.142c0.067-1.357,0.011-2.719,0.022-4.079c0.01-1.261-0.617-2.516-0.017-3.79
		c0.09-0.191,0.042-0.665-0.025-0.682c-1.034-0.259-0.66-0.91-0.468-1.525c0.141-0.453,0.353-0.91,0.368-1.37
		c0.074-2.294,0.275-4.608,0.055-6.878c-0.108-1.12-0.673-2.136-0.136-3.332c0.63-1.402,0.104-2.935,0.112-4.389
		c0.007-1.134-0.787-2.309-1.36-3.395c-0.301-0.57-0.837-1.022-1.234-1.564c-0.511-0.695-1.207-1.461-2.343-0.873
		C12.88,7.722,12.445,7.6,12.119,7.501c-0.962-0.288-1.909-0.622-2.897-0.95C9.102,6.989,9.018,7.299,8.875,7.823
		c-0.21-0.391-0.308-0.574-0.436-0.811c-0.409,1-0.874,0.305-1.436,0.173c-0.971-0.227-3.532,2.166-3.667,3.188
		c-0.072,0.549-0.347,1.549-0.459,1.539c-0.878-0.077-0.654,0.73-0.704,0.986c-0.149,0.776-0.064,1.596-0.065,2.399
		c0,0.199-0.061,0.476,0.044,0.586c1.153,1.216,0.079,2.705,0.509,4.059c0.269,0.843-0.183,1.917-0.315,2.886
		c-0.104,0.765,0.18,1.236,0.977,1.366c0.092,0.015,0.157,0.2,0.328,0.434c-0.486-0.029-0.806-0.048-1.361-0.081
		c-0.049,1.078-0.151,2.099-0.129,3.118c0.047,2.264,0.219,4.527,0.187,6.788c-0.006,0.441,0.984,1.185-0.217,1.469
		c0.258,1.699-0.748,3.622,0.904,5.072c-0.848,0.54-1.161,2.386-0.733,3.757c0.194,0.62,0.233,1.297,0.274,1.953
		c0.058,0.929-0.814,1.804-0.046,2.83c0.208,0.277-0.286,1.004-0.282,1.523c0.008,1.096-0.572,2.316,0.381,3.254
		c0.859,0.845,0.946,2.134,0.202,3.001c-0.364,0.424-0.712,1.067-0.679,1.586c0.07,1.081,0.4,2.145,0.566,2.939
		c-0.244,0.716-0.542,1.249-0.587,1.802c-0.086,1.033-0.148,2.097,0.007,3.113c0.193,1.268-0.48,2.729,0.792,3.807
		c0.156,0.132-0.017,0.684-0.076,1.034c-0.241,1.421-0.504,2.839-0.739,4.261c-0.045,0.271,0,0.559,0.001,0.838
		c0.005,1.207,0.012,2.413,0.013,3.619c0,1.28-0.297,2.647,0.06,3.817c0.524,1.72,0.32,3.318,0.009,4.794
		c0.455,0.363,0.822,0.656,1.309,1.045c-0.632,0.28-1.011,0.447-1.365,0.604C1.91,96.329,1.978,97.287,2.443,97.582z"/>
	<path fill-rule="evenodd" clip-rule="evenodd" d="M2.443,97.582c-0.466-0.295-0.533-1.253-0.301-7.009
		c0.354-0.157,0.733-0.324,1.365-0.604c-0.487-0.389-0.854-0.682-1.309-1.045c0.311-1.476,0.515-3.074-0.009-4.794
		c-0.356-1.17-0.059-2.537-0.06-3.817c0-1.206-0.008-2.412-0.013-3.619c-0.001-0.279-0.046-0.566-0.001-0.838
		c0.235-1.422,0.499-2.84,0.739-4.261c0.059-0.351,0.232-0.902,0.076-1.034c-1.272-1.079-0.599-2.54-0.792-3.807
		c-0.155-1.017-0.093-2.081-0.007-3.113c0.046-0.553,0.344-1.085,0.587-1.802c-0.166-0.794-0.496-1.858-0.566-2.939
		c-0.034-0.519,0.314-1.162,0.679-1.586c0.744-0.867,0.657-2.156-0.202-3.001c-0.954-0.938-0.373-2.158-0.381-3.254
		c-0.004-0.519,0.489-1.246,0.282-1.523c-0.768-1.025,0.104-1.9,0.046-2.83c-0.042-0.656-0.081-1.333-0.274-1.953
		c-0.428-1.371-0.115-3.217,0.733-3.757c-1.652-1.45-0.646-3.373-0.904-5.072c1.201-0.285,0.211-1.028,0.217-1.469
		c0.032-2.261-0.14-4.524-0.187-6.788c-0.021-1.019,0.081-2.04,0.129-3.118c0.555,0.033,0.875,0.052,1.361,0.081
		c-0.171-0.234-0.236-0.419-0.328-0.434c-0.797-0.13-1.081-0.602-0.977-1.366c0.132-0.97,0.584-2.043,0.315-2.886
		c-0.431-1.354,0.644-2.843-0.509-4.059c-0.105-0.11-0.044-0.387-0.044-0.586c0.001-0.803-0.084-1.624,0.065-2.399
		c0.049-0.256-0.175-1.063,0.704-0.986c0.112,0.01,0.387-0.99,0.459-1.539c0.135-1.022,2.697-3.414,3.667-3.188
		C7.565,7.316,8.03,8.012,8.439,7.012c0.127,0.237,0.226,0.42,0.436,0.811c0.143-0.523,0.227-0.833,0.346-1.271
		c0.988,0.328,1.936,0.662,2.897,0.95c0.326,0.098,0.762,0.22,1.021,0.086c1.136-0.588,1.832,0.177,2.343,0.873
		c0.397,0.542,0.934,0.994,1.234,1.564c0.573,1.085,1.367,2.261,1.36,3.395c-0.009,1.454,0.518,2.986-0.112,4.389
		c-0.537,1.195,0.028,2.212,0.136,3.332c0.22,2.27,0.02,4.584-0.055,6.878c-0.015,0.46-0.227,0.917-0.368,1.37
		c-0.191,0.615-0.565,1.266,0.468,1.525c0.066,0.017,0.115,0.49,0.025,0.682c-0.6,1.274,0.027,2.529,0.017,3.79
		c-0.012,1.36,0.045,2.722-0.022,4.079c-0.035,0.719-0.367,1.425-0.391,2.142c-0.031,0.906,0.039,1.833,0.203,2.726
		c0.291,1.586,0.345,3.135-0.314,4.642c-0.201,0.46-0.441,0.858,0.32,1.04c0.117,0.028,0.192,0.461,0.194,0.707
		c0.013,2.72,0.031,5.44-0.011,8.16c-0.009,0.553-0.279,1.099-0.396,1.654c-0.051,0.242-0.104,0.54-0.01,0.748
		c0.756,1.691,0.29,3.379,0.151,5.103c-0.123,1.525,0.266,3.085,0.233,4.625c-0.017,0.796-0.463,1.583-0.707,2.376
		c-0.047,0.153-0.126,0.357-0.067,0.476c1.222,2.432,0.742,4.972,0.63,7.528c-0.117,2.654,0.143,5.322,0.176,7.985
		c0.039,3.065,0.066,6.132-0.012,9.195c-0.05,1.986-0.354,3.967-0.428,5.954c-0.028,0.764,0.379,1.537,0.392,2.309
		c0.058,3.438,0.1,6.88,0.035,10.317c-0.037,1.898-0.303,3.793-0.449,5.691c-0.021,0.269-0.021,0.578,0.089,0.812
		c0.616,1.297,0.575,1.612-0.43,2.534c1.036,1.49,1.004,4.01-0.361,5.769c-0.896,1.154-2.119,2.065-3.257,3.012
		c-0.284,0.236-0.808,0.177-1.215,0.277c-0.551,0.135-1.09,0.366-1.647,0.419c-0.566,0.054-1.165,0.012-1.719-0.119
		c-0.787-0.188-1.529-0.61-2.32-0.726c-1.751-0.255-2.594-1.514-3.485-2.807c-0.792-1.148-0.79-2.282-0.455-3.597
		c0.198-0.776,0.366-1.792-0.688-2.391c-0.186-0.105-0.208-0.797-0.073-1.122c0.552-1.327,0.388-2.653,0.204-4.007
		c-0.037-0.273,0.199-0.583,0.347-0.976c-0.159-0.583-0.539-1.377-0.566-2.184c-0.079-2.313-0.079-4.635,0.022-6.947
		c0.045-1.035,0.571-2.055,0.582-3.084c0.01-1.051-0.39-2.099-0.522-3.159c-0.079-0.627,0.023-1.274,0.024-1.913
		c0.002-0.72-0.038-1.439-0.02-2.158c0.012-0.516,0.089-1.031,0.115-1.548C2.371,98.515,2.403,98.103,2.443,97.582z"/>
</g>
</svg>
